{
  "accessors": [
    {
      "bufferView": 2,
      "componentType": 5126,
      "count": 65532,
      "max": [
        1.3368372917175293,
        5.523244857788086,
        2.6977741718292236
      ],
      "min": [
        -1.3742557764053345,
        -0.01655292510986328,
        -2.6906790733337402
      ],
      "type": "VEC3"
    },
    {
      "bufferView": 2,
      "byteOffset": 786384,
      "componentType": 5126,
      "count": 65532,
      "max": [
        1.0,
        1.0,
        1.0
      ],
      "min": [
        -1.0,
        -1.0,
        -1.0
      ],
      "type": "VEC3"
    },
    {
      "bufferView": 3,
      "componentType": 5126,
      "count": 65532,
      "max": [
        1.0,
        1.0,
        1.0,
        1.0
      ],
      "min": [
        -1.0,
        -1.0,
        -1.0,
        -1.0
      ],
      "type": "VEC4"
    },
    {
      "bufferView": 1,
      "componentType": 5126,
      "count": 65532,
      "max": [
        0.9980079531669617,
        0.9873489141464233
      ],
      "min": [
        0.001992034027352929,
        0.0019326723413541913
      ],
      "type": "VEC2"
    },
    {
      "bufferView": 0,
      "componentType": 5125,
      "count": 137337,
      "type": "SCALAR"
    },
    {
      "bufferView": 2,
      "byteOffset": 1572768,
      "componentType": 5126,
      "count": 1936,
      "max": [
        1.3265100717544556,
        4.194301128387451,
        1.2202599048614502
      ],
      "min": [
        1.2988656759262085,
        1.1735548973083496,
        0.8583698272705078
      ],
      "type": "VEC3"
    },
    {
      "bufferView": 2,
      "byteOffset": 1596000,
      "componentType": 5126,
      "count": 1936,
      "max": [
        1.0,
        0.8660256266593933,
        1.0
      ],
      "min": [
        -1.0,
        -0.8660256266593933,
        -1.0
      ],
      "type": "VEC3"
    },
    {
      "bufferView": 3,
      "byteOffset": 1048512,
      "componentType": 5126,
      "count": 1936,
      "max": [
        0.07708843052387238,
        1.0,
        0.866025447845459,
        1.0
      ],
      "min": [
        -0.10425576567649841,
        -1.0,
        -0.8660255074501038,
        -1.0
      ],
      "type": "VEC4"
    },
    {
      "bufferView": 1,
      "byteOffset": 524256,
      "componentType": 5126,
      "count": 1936,
      "max": [
        0.43560221791267395,
        0.928546667098999
      ],
      "min": [
        0.42034363746643066,
        0.881763219833374
      ],
      "type": "VEC2"
    },
    {
      "bufferView": 0,
      "byteOffset": 549348,
      "componentType": 5125,
      "count": 3858,
      "type": "SCALAR"
    }
  ],
  "asset": {
    "extras": {
      "author": "Ankush Gupta (https://sketchfab.com/Ankush4135)",
      "license": "CC-BY-4.0 (http://creativecommons.org/licenses/by/4.0/)",
      "source": "https://sketchfab.com/3d-models/server-cpu-12126491216b49c7b8b128c950e57ca3",
      "title": "Server (CPU)"
    },
    "generator": "Sketchfab-12.68.0",
    "version": "2.0"
  },
  "bufferViews": [
    {
      "buffer": 0,
      "byteLength": 564780,
      "name": "floatBufferViews",
      "target": 34963
    },
    {
      "buffer": 0,
      "byteLength": 539744,
      "byteOffset": 564780,
      "byteStride": 8,
      "name": "floatBufferViews",
      "target": 34962
    },
    {
      "buffer": 0,
      "byteLength": 1619232,
      "byteOffset": 1104524,
      "byteStride": 12,
      "name": "floatBufferViews",
      "target": 34962
    },
    {
      "buffer": 0,
      "byteLength": 1079488,
      "byteOffset": 2723756,
      "byteStride": 16,
      "name": "floatBufferViews",
      "target": 34962
    }
  ],
  "buffers": [
    {
      "byteLength": 3803244,
      "uri": "scene.bin"
    }
  ],
  "images": [
    {
      "uri": "textures/server_baseColor.png"
    },
    {
      "uri": "textures/server_metallicRoughness.png"
    },
    {
      "uri": "textures/server_normal.png"
    }
  ],
  "materials": [
    {
      "doubleSided": true,
      "name": "server",
      "normalTexture": {
        "index": 2
      },
      "pbrMetallicRoughness": {
        "baseColorTexture": {
          "index": 0
        },
        "metallicRoughnessTexture": {
          "index": 1
        }
      }
    }
  ],
  "meshes": [
    {
      "name": "Server_server_0",
      "primitives": [
        {
          "attributes": {
            "NORMAL": 1,
            "POSITION": 0,
            "TANGENT": 2,
            "TEXCOORD_0": 3
          },
          "indices": 4,
          "material": 0,
          "mode": 4
        }
      ]
    },
    {
      "name": "Server_server_0",
      "primitives": [
        {
          "attributes": {
            "NORMAL": 6,
            "POSITION": 5,
            "TANGENT": 7,
            "TEXCOORD_0": 8
          },
          "indices": 9,
          "material": 0,
          "mode": 4
        }
      ]
    }
  ],
  "nodes": [
    {
      "children": [
        1
      ],
      "matrix": [
        1.0,
        0.0,
        0.0,
        0.0,
        0.0,
        2.220446049250313e-16,
        -1.0,
        0.0,
        0.0,
        1.0,
        2.220446049250313e-16,
        0.0,
        0.0,
        0.0,
        0.0,
        1.0
      ],
      "name": "Sketchfab_model"
    },
    {
      "children": [
        2
      ],
      "matrix": [
        1.0,
        0.0,
        0.0,
        0.0,
        0.0,
        0.0,
        1.0,
        0.0,
        0.0,
        -1.0,
        0.0,
        0.0,
        0.0,
        0.0,
        0.0,
        1.0
      ],
      "name": "d1b9b09d043e433797ca5afa4bc41f17.fbx"
    },
    {
      "children": [
        3
      ],
      "name": "RootNode"
    },
    {
      "children": [
        4,
        5
      ],
      "name": "Server"
    },
    {
      "mesh": 0,
      "name": "Server_server_0"
    },
    {
      "mesh": 1,
      "name": "Server_server_0"
    }
  ],
  "samplers": [
    {
      "magFilter": 9729,
      "minFilter": 9987,
      "wrapS": 10497,
      "wrapT": 10497
    }
  ],
  "scene": 0,
  "scenes": [
    {
      "name": "Sketchfab_Scene",
      "nodes": [
        0
      ]
    }
  ],
  "textures": [
    {
      "sampler": 0,
      "source": 0
    },
    {
      "sampler": 0,
      "source": 1
    },
    {
      "sampler": 0,
      "source": 2
    }
  ]
}
