<?xml version="1.0" encoding="UTF-8"?>
<svg id="Capa_1" data-name="Capa 1" xmlns="http://www.w3.org/2000/svg" viewBox="0 0 808.07 783">
  <defs>
    <style>
      .cls-1 {
        fill: #fff;
        stroke-width: 0px;
      }
    </style>
  </defs>
  <path class="cls-1" d="m501.36,245.6c0,12.55.41,25.12-.14,37.65-.38,8.65,3,12.78,11.19,15.66,39.78,13.99,80.43,25.76,118.16,45.15,16.97,8.72,33.03,18.52,46.63,32.28,18.2,18.41,13.93,65.63-5.52,88.91-19.25,23.05-42.16,41.69-66.19,59-29.6,21.32-60.07,41.42-90.16,62.06-9.92,6.81-9.82,7.38.16,13.29,24.21,14.34,48.35,28.78,72.46,43.28,2.91,1.75,5.69,3.83,8.17,6.14,17,15.85,16.23,31.71-3.58,43.67-20.24,12.22-42.59,20.32-65.31,26.55-50.23,13.77-100.81,26.12-152.54,33.21-23.52,3.23-46.74,4.6-70.07-1.75-34.32-9.34-47.84-33.66-35.02-66.91,12.41-32.18,35.87-56.07,62.24-77.22,18.38-14.74,37-29.22,55.98-43.18,7.68-5.65,7.8-8.46-.65-13.27-56.18-31.96-113.09-62.55-170.16-92.89-25.16-13.38-51.29-25.03-75.25-40.62-24.22-15.76-28.06-28.36-15.43-54.77,11.01-23.01,24.19-44.89,39.42-65.37,60.6-81.49,122.19-162.18,196.63-231.93,16.66-15.61,33.55-31.16,57.26-35.6,23.4-4.39,42.02,4.23,53.54,25.15,13.34,24.21,16.91,51.19,20.6,77.86,5.21,37.65,7.91,75.57,7.57,113.65Zm-331.06,143.22c-.27,5,1.99,8.91,5.67,11.89,5.01,4.06,10.02,8.21,15.48,11.61,71.62,44.64,145.35,85.68,218.62,127.49,4.71,2.69,8.16,1.81,12.47-.98,30.94-20.02,62.34-39.34,92.99-59.79,19.56-13.06,39.29-26.12,56.41-42.45,8.85-8.45,8.73-17.12-.99-24.01-20.21-14.31-42.01-25.93-64.9-35.48-4.69-1.96-7.41-.47-8.27,4.28-.68,3.72-.96,7.53-1.25,11.31-2.06,27.38-6.03,54.38-15.93,80.2-11.36,29.64-34.85,38.71-63.11,24.11-9.87-5.1-17.98-12.69-25.93-20.33-36.3-34.88-62-77.71-88.76-119.64-12.65-19.81-25.66-39.63-34.55-61.54-3.31-8.15-5.64-8.09-11.24-2.26-26.35,27.39-52.95,54.53-79.43,81.79-3.76,3.87-6.92,8.12-7.29,13.8Zm266.21,41.8c.28-.01.56-.03.85-.04-1.7-24.97-3.93-49.92-4.83-74.91-.34-9.55-3.96-14.12-12.46-17.63-37.2-15.35-74.13-31.32-111.22-46.93-3.62-1.52-7.67-5.99-11.31-2.67-3.63,3.32.11,7.91,1.63,11.52,23.61,56.2,56.71,106.33,97.62,151.38,5.69,6.27,12.63,10.87,20.61,13.85,10.67,3.98,18.02-.31,18.99-11.81.63-7.54.12-15.18.12-22.77Zm-10.72-166.8c-1.05-12.22-1.75-22.83-2.9-33.39-2.51-23-3.28-46.24-8.57-68.87-3.84-16.41-10.01-18.67-22.3-7.32-30.42,28.12-58.94,58.15-87,88.6-4.92,5.34-3.54,7.41,3.36,8.11,35.98,3.64,71.15,11.72,106.3,19.8,7.65,1.76,14.4,3.4,11.11-6.95Zm-38.14,412.83c3.98.37,5.46.72,6.9.61,26.85-2.15,53.69-4.37,80.53-6.54,24.95-2.02,49.91-3.96,74.86-6.1,2.81-.24,6.84.6,7.88-3.06.95-3.35-2.35-5.33-4.51-7.32-14.08-12.92-31.69-21.09-46.22-33.08-16.99-14.02-30.03-12.05-46.37,1.14-22.93,18.5-49.13,32.8-73.07,54.35Z"/>
</svg>