<svg width="167" height="40" viewBox="0 0 167 40" xmlns="http://www.w3.org/2000/svg" xmlns:xlink="http://www.w3.org/1999/xlink">
    <defs>
        <path id="jgzjvom9na" d="M0 0h33.416v40H0z"/>
    </defs>
    <g fill="none" fill-rule="evenodd">
        <path d="M53.064 35.8c.346-.742.376-1.052.376-3.022-.893.14-2.098.314-3.575.625-2.538.545-2.972 1.485-2.972 2.428 0 1.084.867 1.997 2.57 1.997 1.584 0 2.942-.63 3.601-2.027zm3.138 3.722-2.386.011s-.207-.955-.272-1.989c-.694.708-1.979 2.178-4.572 2.178-2.654 0-4.626-1.558-4.626-3.835 0-.715.203-1.428.606-2.025.782-1.141 2.233-2.053 6.299-2.369l2.159-.17v-.341c0-1.399 0-3.736-3.046-3.736-1.917 0-2.565.917-2.792 1.747l-2.11-.871a5.49 5.49 0 0 1 .112-.22c.813-1.48 2.4-2.395 4.706-2.395 1.262 0 2.9.315 3.97 1.141 1.519 1.14 1.488 3.383 1.488 3.383l.088 6.918s.085 2.007.376 2.573zm76.204-3.721c.345-.743.373-1.053.373-3.023-.89.14-2.1.314-3.576.625-2.534.545-2.968 1.485-2.968 2.428 0 1.084.867 1.997 2.566 1.997 1.588 0 2.942-.63 3.605-2.027zm3.134 3.721-2.387.011s-.206-.955-.27-1.989c-.691.708-1.976 2.178-4.573 2.178-2.653 0-4.622-1.558-4.622-3.835 0-.715.204-1.428.606-2.025.782-1.141 2.23-2.053 6.294-2.369l2.163-.17v-.341c0-1.399 0-3.736-3.05-3.736-1.912 0-2.569.917-2.787 1.747l-2.11-.871c.03-.073.07-.148.11-.22.81-1.48 2.402-2.395 4.704-2.395 1.265 0 2.903.315 3.973 1.141 1.519 1.14 1.481 3.383 1.481 3.383l.095 6.918s.077 2.007.373 2.573zm-26.044-2.585c-.782 1.315-2.29 2.82-5.265 2.82-4.032 0-6.348-2.706-6.348-7.245 0-5.065 3.383-7.005 6.262-7.005 2.509 0 4.907 1.369 5.715 4.755.258 1.14.258 2.167.258 2.736h-9.81c-.058 2.253.9 5.106 4.125 5.053 1.317-.023 2.244-.613 2.835-1.538l2.228.424zm-9.128-5.565h7.24c-.202-3.527-2.261-4.126-3.635-4.126-1.96 0-3.348 1.42-3.605 4.126zm-16.93 5.565c-.782 1.315-2.29 2.82-5.262 2.82-4.035 0-6.356-2.706-6.356-7.245 0-5.065 3.387-7.005 6.268-7.005 2.505 0 4.906 1.369 5.715 4.755.256 1.14.256 2.167.256 2.736h-9.807c-.062 2.253.898 5.106 4.124 5.053 1.315-.023 2.243-.613 2.835-1.538l2.227.424zm-9.128-5.565h7.241c-.202-3.527-2.262-4.126-3.635-4.126-1.96 0-3.35 1.42-3.606 4.126zm46.675 4.883c-.48.925-1.382 1.762-3.153 1.762-1.543 0-4.13-.959-4.13-5.406 0-1.197.22-5.437 3.986-5.437 1.904 0 2.779 1.023 3.185 1.907l2.148-.887c-1.323-2.176-3.71-2.683-5.416-2.683-4.35 0-6.451 3.456-6.451 7.27 0 3.3 1.821 6.975 6.65 6.975 2.796 0 4.354-1.334 5.206-2.663l-2.025-.838zM85.379 26.026v13.496h2.292v-7.654c0-1 0-2.023 1.013-3.019.725-.712 1.596-1.023 2.609-1.023 1.246 0 2.523.568 2.926 1.849.147.454.147.852.147 2.22v7.627h2.285v-7.998c0-1.141 0-1.963-.234-2.762-.663-2.224-2.746-3.085-4.488-3.085-.808 0-2.984.201-4.258 2.403v-2.054H85.38zm-27.554-4.247v2.186h10.21l-10.218 13.25v2.307h13.198v-2.13H60.59l10.168-13.4v-2.213H57.825zm-20.529 4.247v13.496h2.29v-6.206c0-1.156-.03-2.527.58-3.505.743-1.197 1.849-1.651 4.096-1.667v-2.337c-.924.03-3.376.086-4.676 2.632v-2.413h-2.29zm-4.552-4.25-2.363.973v3.277h-2.167v1.887h2.167v8.665c-.03 1.762-.03 3.035 2.623 3.035.867 0 1.818-.17 2.221-.228v-1.868c-.46.14-1.065.311-1.5.311-.981 0-.981-.681-.981-2.273v-7.642h2.481v-1.887h-2.481v-4.25zm-7.43 13.986c0 1.448-1.189 2.217-3.218 2.217-1.638 0-2.738-.455-3.348-1.5l-2.424.42c.943 1.907 2.907 2.819 5.673 2.819 3.754 0 5.714-2.053 5.714-4.24 0-2.81-2.623-3.572-5.642-4.174-1.457-.289-3.168-.823-3.168-2.098 0-.91.898-1.96 2.696-1.96 1.838 0 2.935 1.235 3.103 1.724l2.13-.875c-.975-1.838-2.927-2.588-4.972-2.588-3.156 0-5.25 1.54-5.25 3.983 0 2.78 2.412 3.325 4.748 3.826 2.01.428 3.958.916 3.958 2.446zm-11.959 3.76h2.52l-6.54-17.747H6.843L0 39.522h2.542l2.01-5.441H11.4l1.956 5.441zm-8.04-7.43 2.75-7.373 2.62 7.374h-5.37z" fill="#8B0051"/>
        <g transform="translate(133.584)">
            <mask id="b4h9e5jmeb" fill="#fff">
                <use xlink:href="#jgzjvom9na"/>
            </mask>
            <path d="M27.586 16.631c-2.69-.924-9.344-3.373-16.363-4.286-2.413-.312-3.386.534-2.39 2.807.978 2.243 3.521 6.002 6.184 8.82 2.661 2.82 5.549 3.577 6.466-.765.034-.155.065-.31.096-.462.222-1.117.387-2.2.471-3.147-1.18-.53-2.504-1.095-3.827-1.646.074.996.191 2.716.253 4.04.007.17.016.333.02.492.08 2.144-.66 2.136-1.895 1.262-1.44-1.016-5.842-6.763-6.348-9.3-.023-.168.057-.173.144-.146l.109.043.011.002c.994.387 4.304 1.677 7.667 3.076 1.343.559 2.69 1.133 3.9 1.675 1.194.532 2.256 1.03 3.05 1.45 1.454.767 2.017 1.29 1.408 1.904-3.027 3.035-13.59 7.35-17.237 12.685 0 0-.015.018-.039.052-.042.056-.08.121-.118.19-.011.019-.02.042-.031.06-.18.326-.437.894-.529 1.584-.154 1.166.46 2.23 2.155 2.682a7.82 7.82 0 0 0 1.439.269c.091.007.195.016.298.019 3.257.156 11.71-1.674 14.283-2.804 2.658-1.166 1.865-2.325 1.094-2.928-.576-.454-3.536-2.084-4.972-2.868-.382.242-.685.431-1.064.674 2.442 1.474 3.409 2.206 3.98 2.638.22.17.1.37-.226.393l-.261.019c-2.32.159-6.716.463-8.779.572-.303.019-.644.034-.833.041.51-.473 1.086-.9 1.37-1.098 4.411-3.065 11.768-7.372 13.934-9.225 1.596-1.364 5.952-5.541-3.42-8.774M16.88 28.163c-.355.224-.713.447-1.066.679-4.116-2.259-12.96-6.612-13.728-7.006-.82-.42-2.251-.988-2.07-2.333.253-1.889 3.57-6.021 4.978-7.72C12.624 2.569 16.04-.274 18.307.022c2.418.312 3.758 2.778 3.92 14.33a83.527 83.527 0 0 0-4.423-1.226c-.13-1.678-.445-4.211-.567-5.087-.135-.986-.33-1.36-.732-1.414-.457-.059-1.57.997-2.578 2.017-.46.462-1.757 1.758-3.188 3.182-1.196-.077-1.993.17-2.435.745-.353.464-.43 1.099-.219 1.897-.775.762-1.439 1.422-1.86 1.837-1.592 1.567-3.272 2.863-3.36 3.499-.069.518.737 1.057 1.883 1.732 2.8 1.652 9.693 5.334 12.132 6.63" fill="#F0AB00" mask="url(#b4h9e5jmeb)"/>
        </g>
    </g>
</svg>
